Coordinates
version=1
nRows=26
nColumns=22
inDegrees=yes

Units are S.I. units (second, meters, Newtons, ...)
If the header above contains a line with 'inDegrees', this indicates whether rotational values are in degrees (yes) or radians (no).

endheader
time	pelvis_tilt	pelvis_list	pelvis_rotation	pelvis_tx	pelvis_ty	pelvis_tz	hip_flexion_r	hip_adduction_r	hip_rotation_r	knee_angle_r	ankle_angle_r	subtalar_angle_r	hip_flexion_l	hip_adduction_l	hip_rotation_l	knee_angle_l	ankle_angle_l	subtalar_angle_l	lumbar_extension	lumbar_bending	lumbar_rotation
      3.87000000	     -1.80643254	      2.43224164	     -6.33829523	      0.41370319	      0.94460763	     -0.61401108	     18.55291955	     -1.30350918	     -2.94544276	    -71.48673287	     -4.45075442	     -4.28254479	     15.84889385	     -1.90396127	      9.97887718	    -25.06504345	     13.80012493	      8.11432577	     -0.68925673	     -0.23447435	     -7.43047580
      3.88000000	     -1.76021976	      2.18595616	     -7.02941613	      0.42102625	      0.94587522	     -0.61289281	     19.70419357	     -1.02102602	     -3.64603816	    -71.65244831	     -3.36964386	     -4.24733432	     14.87739249	     -2.34072028	      9.35501962	    -24.52071478	     14.09503327	      7.85728043	     -0.81617101	     -0.01807421	     -7.69792156
      3.89000000	     -1.76374465	      1.90596659	     -7.68580417	      0.42826545	      0.94706239	     -0.61162706	     20.83635382	     -0.67046130	     -4.38495296	    -71.56567574	     -2.30055053	     -4.10959085	     13.93123562	     -2.81287124	      8.75271189	    -23.93306700	     14.37542109	      7.67476636	     -0.89873871	      0.23445993	     -7.97400009
      3.90000000	     -1.79853051	      1.60576266	     -8.33557129	      0.43543117	      0.94817501	     -0.61022000	     21.94202337	     -0.28041205	     -5.13873250	    -71.25425947	     -1.26864990	     -3.86099563	     12.98913419	     -3.31005719	      8.13118695	    -23.30427818	     14.64011497	      7.53780957	     -0.95794913	      0.51184086	     -8.25650059
      3.91000000	     -1.85953125	      1.30106562	     -8.96786839	      0.44255309	      0.94919114	     -0.60875298	     23.01172093	      0.09211857	     -5.93969307	    -70.73365098	     -0.26785428	     -3.55957866	     12.06530601	     -3.80687219	      7.48166584	    -22.66357862	     14.89762618	      7.43960612	     -0.99680056	      0.80726051	     -8.55670733
      3.92000000	     -1.92544599	      1.01542104	     -9.57417363	      0.44965573	      0.95014264	     -0.60726840	     24.03152140	      0.38956043	     -6.79078522	    -70.03043714	      0.69402141	     -2.97376733	     11.11251804	     -4.26264455	      6.88203838	    -21.96615039	     15.11131385	      7.35254830	     -1.03310137	      1.09091179	     -8.85439138
      3.93000000	     -2.00307110	      0.74346484	    -10.15446862	      0.45670414	      0.95096484	     -0.60578860	     25.01550535	      0.59959636	     -7.71518555	    -69.17151751	      1.55620928	     -2.42584573	     10.19509525	     -4.69043966	      6.25152189	    -21.30320752	     15.33042634	      7.28623549	     -1.06531776	      1.37525601	     -9.19598812
      3.94000000	     -2.08201005	      0.47947165	    -10.70970109	      0.46371670	      0.95168846	     -0.60432282	     25.94838937	      0.71864138	     -8.71324549	    -68.16682845	      2.28001864	     -1.89628291	      9.27845004	     -5.08725637	      5.65440783	    -20.63849430	     15.54357648	      7.22702308	     -1.10404390	      1.66724678	     -9.54501736
      3.95000000	     -2.16124295	      0.21937314	    -11.22956131	      0.47066744	      0.95228097	     -0.60287155	     26.83088652	      0.74095294	     -9.80306418	    -67.03797384	      2.88026376	     -1.52165318	      8.40138172	     -5.46233268	      5.05213659	    -20.03409369	     15.77131426	      7.16893539	     -1.15512769	      1.96912831	     -9.94045736
      3.96000000	     -2.22582679	     -0.01235245	    -11.73267129	      0.47758668	      0.95277188	     -0.60141202	     27.65472082	      0.65805605	    -10.93176245	    -65.80675270	      3.40375583	     -1.07789008	      7.51130142	     -5.78289674	      4.49598099	    -19.42794053	     15.97654949	      7.11198893	     -1.22484775	      2.25081492	    -10.33036532
      3.97000000	     -2.29879837	     -0.22548326	    -12.22629551	      0.48444347	      0.95310885	     -0.59991143	     28.44894295	      0.50130527	    -12.08985951	    -64.49114982	      3.86903047	     -0.69771133	      6.65472321	     -6.07015378	      3.95452754	    -18.86000041	     16.18353319	      7.05372631	     -1.29071116	      2.52467377	    -10.71432842
      3.98000000	     -2.37537728	     -0.43309503	    -12.70599840	      0.49124046	      0.95330821	     -0.59834256	     29.19516236	      0.30614912	    -13.26043235	    -63.07967613	      4.29266586	     -0.39972897	      5.83173205	     -6.34021488	      3.42647775	    -18.34203815	     16.40269077	      6.99281392	     -1.36049577	      2.80174689	    -11.09026250
      3.99000000	     -2.45483013	     -0.63710278	    -13.17914825	      0.49798103	      0.95335875	     -0.59667119	     29.89804135	      0.09157057	    -14.42642470	    -61.58827145	      4.67509354	     -0.17516624	      5.03754252	     -6.59830549	      2.90986071	    -17.87254540	     16.63391428	      6.92837699	     -1.43388153	      3.08018668	    -11.44912634
      4.00000000	     -2.53791402	     -0.83769347	    -13.64408913	      0.50466361	      0.95326417	     -0.59488228	     30.55653107	     -0.12505193	    -15.57062328	    -60.01616369	      5.00369530	     -0.02890534	      4.27526234	     -6.84707349	      2.40509588	    -17.45446239	     16.88094778	      6.86016714	     -1.50925957	      3.35813527	    -11.79094126
      4.01000000	     -2.62999567	     -1.02913954	    -14.09737740	      0.51127527	      0.95301462	     -0.59298855	     31.18095221	     -0.33669341	    -16.67791995	    -58.36848426	      5.28676355	      0.04631909	      3.55337615	     -7.08278759	      1.91702455	    -17.08650090	     17.14028418	      6.79080065	     -1.58007699	      3.63192479	    -12.10320442
      4.02000000	     -2.70255074	     -1.21371859	    -14.54300919	      0.51784243	      0.95266712	     -0.59096935	     31.74075178	     -0.53133330	    -17.72282264	    -56.64398853	      5.45741300	      0.08213577	      2.82242106	     -7.30337864	      1.43598978	    -16.73882987	     17.41557546	      6.71593579	     -1.67488835	      3.89639740	    -12.42135720
      4.03000000	     -2.78055847	     -1.38439462	    -14.97060756	      0.52433632	      0.95218162	     -0.58884973	     32.26575978	     -0.71210380	    -18.71145884	    -54.85236174	      5.59085803	      0.09216533	      2.12078284	     -7.50847650	      0.97751817	    -16.42141379	     17.69555139	      6.64264466	     -1.76829634	      4.15083162	    -12.71036202
      4.04000000	     -2.85467586	     -1.53812841	    -15.37952835	      0.53078047	      0.95158315	     -0.58662518	     32.74527819	     -0.88504119	    -19.64712575	    -52.99814979	      5.66183286	      0.10519187	      1.42944058	     -7.69341042	      0.53972029	    -16.11887336	     17.97480591	      6.57360583	     -1.86450820	      4.38810372	    -12.97714663
      4.05000000	     -2.91062644	     -1.67737498	    -15.76688121	      0.53718686	      0.95090071	     -0.58430580	     33.16199129	     -1.05139396	    -20.52619349	    -51.08438614	      5.66488312	      0.12651899	      0.72487125	     -7.85827452	      0.11954120	    -15.81493989	     18.25294207	      6.51143774	     -1.98037718	      4.60875776	    -13.24570033
      4.06000000	     -2.97106739	     -1.80295190	    -16.13030397	      0.54356564	      0.95012487	     -0.58188915	     33.53153972	     -1.20129134	    -21.34950499	    -49.10685725	      5.61707239	      0.16718846	      0.02109012	     -8.00934132	     -0.25536751	    -15.49441733	     18.51139317	      6.46401306	     -2.08780627	      4.82090010	    -13.51144778
      4.07000000	     -2.96119086	     -1.91219109	    -16.46505509	      0.54997368	      0.94932722	     -0.57941474	     33.77941207	     -1.39100540	    -22.17025801	    -47.09759010	      5.53361774	      0.20246533	     -0.74201482	     -8.12461121	     -0.65998930	    -15.18655641	     18.78503834	      6.43364021	     -2.26609354	      5.00136941	    -13.77598726
      4.08000000	     -2.95405720	     -2.01142064	    -16.77425783	      0.55640061	      0.94846036	     -0.57684788	     33.97018530	     -1.57239951	    -22.96760078	    -45.03816172	      5.41018773	      0.25190067	     -1.51911059	     -8.22943647	     -1.01704124	    -14.84316098	     19.02351262	      6.43027626	     -2.43283592	      5.17801765	    -14.03761096
      4.09000000	     -2.91922862	     -2.09576461	    -17.05761054	      0.56288629	      0.94755324	     -0.57420496	     34.07602309	     -1.77216043	    -23.76930206	    -42.95134057	      5.27971010	      0.30831727	     -2.33803776	     -8.30993880	     -1.36407451	    -14.46985721	     19.24129178	      6.45358426	     -2.61655116	      5.33893000	    -14.30264765
      4.10000000	     -2.86098253	     -2.16959296	    -17.31747027	      0.56944931	      0.94660867	     -0.57146484	     34.10013778	     -1.98431432	    -24.59048600	    -40.84909019	      5.16105247	      0.37066638	     -3.19993179	     -8.37328729	     -1.70220528	    -14.06258175	     19.43129051	      6.50413044	     -2.81084605	      5.48862425	    -14.57385575
      4.11000000	     -2.78164598	     -2.23042793	    -17.55819887	      0.57611864	      0.94562188	     -0.56862499	     34.05130358	     -2.21174687	    -25.44234105	    -38.75113009	      5.08647025	      0.43274333	     -4.10181582	     -8.41654999	     -2.04245611	    -13.62402658	     19.59655538	      6.58421821	     -3.00875592	      5.62775694	    -14.84547683
      4.12000000	     -2.68891021	     -2.28200880	    -17.77867061	      0.58288950	      0.94458948	     -0.56566603	     33.94089597	     -2.44635400	    -26.33878550	    -36.67390045	      5.07729943	      0.48912648	     -5.02773788	     -8.44789272	     -2.37812386	    -13.16950928	     19.73423734	      6.69389484	     -3.20310676	      5.75963303	    -15.12180835
